<svg width="35" height="39" viewBox="0 0 35 39" fill="none" xmlns="http://www.w3.org/2000/svg">
<path d="M8.125 17.75H17.5V27.125H8.125M30.625 34.625H4.375V14H30.625M30.625 4.625H28.75V0.875H25V4.625H10V0.875H6.25V4.625H4.375C3.38044 4.625 2.42661 5.02009 1.72335 5.72335C1.02009 6.42661 0.625 7.38044 0.625 8.375V34.625C0.625 35.6196 1.02009 36.5734 1.72335 37.2766C2.42661 37.9799 3.38044 38.375 4.375 38.375H30.625C31.6196 38.375 32.5734 37.9799 33.2766 37.2766C33.9799 36.5734 34.375 35.6196 34.375 34.625V8.375C34.375 7.38044 33.9799 6.42661 33.2766 5.72335C32.5734 5.02009 31.6196 4.625 30.625 4.625Z" fill="#FFDE17"/>
</svg>
